<?xml version="1.0" encoding="utf-8"?>
<!-- Generator: Adobe Illustrator 26.2.1, SVG Export Plug-In . SVG Version: 6.00 Build 0)  -->
<svg version="1.1" id="Calque_1" xmlns="http://www.w3.org/2000/svg" xmlns:xlink="http://www.w3.org/1999/xlink" x="0px" y="0px"
	 viewBox="0 0 782.7 218" style="enable-background:new 0 0 782.7 218;" xml:space="preserve">
<style type="text/css">
	.st0{fill:#FFFFFF;}
	.st1{fill:#2D2D87;}
	.st2{fill:none;}
	.st3{fill:#46AAFF;}
	.st4{fill:#41368D;}
</style>
<g>
	<ellipse class="st0" cx="74.5" cy="93.2" rx="51.5" ry="52.2"/>
	<g>
		<path class="st1" d="M526.6,182.7v-18h7.1c1.2,0,2.3,0.2,3.4,0.6c0.8,0.4,1.5,1,2,1.7c0.4,0.7,0.7,1.6,0.7,2.4
			c0,0.9-0.3,1.9-0.8,2.6c-0.6,0.8-1.5,1.3-2.4,1.5c0.7,0.1,1.3,0.4,1.8,0.8c0.5,0.4,1,0.9,1.3,1.4c0.3,0.6,0.5,1.3,0.5,1.9
			c0,0.6-0.1,1.2-0.3,1.8s-0.5,1.2-1,1.6c-0.6,0.5-1.2,0.9-2,1.2c-1,0.3-2,0.5-3.1,0.4L526.6,182.7z M529.6,167.2v5.2h4
			c0.8,0.1,1.7-0.2,2.4-0.7c0.6-0.5,0.9-1.2,0.8-1.9c0-0.7-0.3-1.4-0.8-1.9c-0.7-0.5-1.5-0.7-2.3-0.7L529.6,167.2z M529.6,180.1h4.1
			c0.9,0.1,1.8-0.2,2.5-0.7c0.5-0.5,0.8-1.1,0.8-1.8s-0.3-1.4-0.8-1.8c-0.7-0.5-1.6-0.8-2.4-0.7h-4.1L529.6,180.1L529.6,180.1z"/>
		<path class="st1" d="M542.4,169.1h3.4l3.8,10.9H549l3.2-10.9h3l-5.2,16.1c-0.3,1.3-1,2.4-1.9,3.4c-0.8,0.7-1.8,1.1-2.8,1.1
			c-0.6,0-1.2-0.1-1.8-0.2c-0.6-0.2-1.2-0.4-1.8-0.7v-2.6c0.5,0.3,1,0.6,1.5,0.7c0.5,0.2,1,0.2,1.4,0.2s0.9-0.1,1.2-0.4
			c0.4-0.3,0.7-0.7,0.9-1.1c0.3-0.5,0.5-1,0.6-1.5l0.4-1.3L542.4,169.1z"/>
		<g id="ZONE">
			<rect x="549.3" y="133.9" class="st2" width="220" height="67.5"/>
		</g>
		<g id="Calque_1-2">
			<path class="st3" d="M588.7,170.3c1.2,0,2.2-1,2.2-2.2s-1-2.2-2.2-2.2s-2.2,1-2.2,2.2l0,0l0,0
				C586.5,169.3,587.5,170.3,588.7,170.3"/>
			<path class="st1" d="M588.7,176.5c4.7,0,8.4-3.8,8.5-8.4c0-2.2-0.9-4.4-2.4-6c-1.5-1.5-3.5-2.4-5.7-2.3c-2,0-4,0.7-5.5,2.1v-13.7
				c-1.1,0.3-2.2,0.7-3.2,1.2v16c0,3.3,0.3,5.8,1.4,7.7C583,175.2,585.6,176.5,588.7,176.5z M588.7,162.9c2.8-0.1,5.1,2.1,5.1,4.9
				c0,0.1,0,0.2,0,0.3c0.1,2.7-1.9,5-4.7,5.2c-0.2,0-0.3,0-0.5,0c-2.7,0.1-5-1.9-5.1-4.6c0-0.1,0-0.3,0-0.4c-0.2-2.8,2-5.2,4.8-5.4
				C588.5,162.9,588.6,162.9,588.7,162.9z"/>
			<path class="st1" d="M588.7,153.5c-0.8,0-1.6,0.1-2.3,0.2v3.3c0.8-0.2,1.6-0.3,2.3-0.3c6.2,0,11.3,5.1,11.3,11.3
				s-5.1,11.3-11.3,11.3s-11.3-5.1-11.3-11.3l0,0l0,0v-9.1c-5,6.2-4,15.4,2.2,20.4s15.4,4,20.4-2.2s4-15.4-2.2-20.4
				C595.2,154.6,592,153.5,588.7,153.5z"/>
			<path class="st3" d="M588.7,147.5c-0.8,0-1.5,0-2.3,0.1v3.2c0.8-0.1,1.6-0.2,2.3-0.2c9.6,0,17.4,7.8,17.3,17.4
				c0,9.6-7.8,17.4-17.4,17.3c-9.6,0-17.4-7.8-17.3-17.4c0-5.1,2.2-9.8,6-13.1v-4c-9.5,6.2-12.1,19-5.8,28.4
				c6.2,9.5,19,12.1,28.4,5.8c9.5-6.2,12.1-19,5.8-28.4C602,150.9,595.6,147.4,588.7,147.5L588.7,147.5z"/>
			<path class="st1" d="M631.1,178.6c-3.1,0.2-5.8-2.2-6-5.3c0-0.2,0-0.3,0-0.5c0-3.7,2.5-6.3,6-6.3c3.3-0.1,5.9,2.5,6,5.8
				c0,0.1,0,0.2,0,0.3c0.2,3.2-2.3,5.9-5.5,6.1C631.4,178.6,631.3,178.6,631.1,178.6 M631.5,162.8c-2.4-0.1-4.7,0.8-6.5,2.4v-12.8
				l-3.8,1.4v15.5c0,3.9,0.4,6.8,1.7,9c1.5,2.5,4.5,4,8.2,4c5.4,0.1,9.8-4.3,9.9-9.7l0,0v-0.2c0-2.6-1-5.1-2.9-7
				C636.4,163.8,634,162.8,631.5,162.8"/>
			<path class="st1" d="M658.3,176.8c-2.1,2.2-5.6,2.3-7.8,0.2l0,0l-0.2-0.2c-2.1-2.5-2.1-6.1,0-8.5c2.1-2.2,5.6-2.3,7.8-0.2
				l0.2,0.2C660.4,170.8,660.4,174.4,658.3,176.8 M659.6,165.7c-0.7-0.8-1.5-1.5-2.5-2c-1.1-0.6-2.3-0.8-3.5-0.8
				c-2.5,0-4.8,1-6.4,2.8c-3.5,3.9-3.5,9.8,0,13.8c1.6,1.8,4,2.9,6.4,2.8c1.2,0,2.4-0.3,3.5-0.9c1-0.5,1.8-1.1,2.5-2v2.5h4.1v-18.7
				h-4.1V165.7z"/>
			<path class="st1" d="M679,178.6c-3.1,0.2-5.8-2.2-6-5.3c0-0.2,0-0.3,0-0.5c0-3.7,2.5-6.3,6-6.3c3.2-0.1,5.9,2.5,6,5.7
				c0,0.1,0,0.3,0,0.4c0.2,3.2-2.2,5.9-5.4,6.1C679.4,178.6,679.2,178.6,679,178.6 M679.4,162.8c-2.4-0.1-4.7,0.8-6.5,2.4v-12.7
				l-3.8,1.5v15.4c0,3.9,0.4,6.8,1.7,9c1.5,2.5,4.5,4,8.2,4c5.5,0,9.9-4.4,9.9-9.9c0-2.6-1-5.1-2.9-6.9
				C684.2,163.8,681.8,162.8,679.4,162.8"/>
			<path class="st1" d="M702.8,178.6c-3.1,0.2-5.8-2.2-6-5.3c0-0.2,0-0.3,0-0.5c0-3.7,2.5-6.3,6-6.3c3.3-0.1,5.9,2.5,6,5.8
				c0,0.1,0,0.2,0,0.3c0.2,3.2-2.3,5.9-5.5,6.1C703.2,178.6,703,178.6,702.8,178.6 M703.2,162.8c-2.4-0.1-4.7,0.8-6.5,2.4v-12.7
				l-3.8,1.5v15.4c0,3.9,0.4,6.8,1.7,9c1.5,2.5,4.4,4,8.2,4c5.5,0,9.9-4.4,9.9-9.9c0-2.6-1-5.1-2.9-6.9
				C708.1,163.8,705.7,162.8,703.2,162.8"/>
			<path class="st1" d="M730.1,176.8c-2.1,2.2-5.6,2.3-7.8,0.2l0,0l-0.2-0.2c-2.1-2.5-2.1-6.1,0-8.5c2.1-2.2,5.6-2.3,7.8-0.2
				l0.2,0.2C732.2,170.8,732.2,174.4,730.1,176.8 M731.3,165.7c-0.7-0.8-1.5-1.5-2.5-2c-1.1-0.6-2.3-0.9-3.5-0.8
				c-2.5,0-4.8,1-6.4,2.8c-3.5,3.9-3.5,9.8,0,13.8c1.6,1.9,4,2.9,6.4,2.8c1.2,0,2.4-0.3,3.5-0.9c1-0.5,1.8-1.1,2.5-2v2.5h4.1v-18.7
				h-4.1V165.7z"/>
			<path class="st1" d="M749.7,163c-5.1,0-8.4,3.2-8.4,8.1v10.8h3.8V171c0-2.8,1.7-4.2,4.8-4.2h0.5v-3.9L749.7,163L749.7,163z"/>
		</g>
	</g>
	<rect x="23.1" y="41" class="st2" width="768.3" height="104.5"/>
	<path class="st4" d="M101.2,48.6c-16.3-10-36.8-10-53.3,0l26.6,32L101.2,48.6z"/>
	<path class="st4" d="M60.2,103.3L29.8,67.5c-14.1,25.2-5.3,56.9,19.4,71.3c3.5,1.9,7.2,3.5,10.9,4.6c0-0.3,0-0.8,0-1.1v-39
		C60.1,103.3,60.2,103.3,60.2,103.3z"/>
	<path class="st4" d="M126,93.3c0-8.9-2.4-17.9-6.7-25.7l-30.4,35.8v38.7c0,0.3,0,0.8,0,1.1C110.8,136.9,126,116.6,126,93.3z"/>
	<path class="st2" d="M88.9,103.3l30.4-35.8c-4.3-7.9-10.7-14.4-18.1-19L74.6,80.8L48,48.8c-7.5,4.6-13.6,11.1-17.9,19l30.1,35.8
		v38.7c0,0.3,0,0.8,0,1.1c9.3,2.7,19.5,2.7,28.8,0c0-0.3,0-0.8,0-1.1L88.9,103.3z"/>
	<path class="st4" d="M184.6,100.3l-16.5-27.4c-1.1-1.9-1.6-4.1-1.6-6.2c0-1.9,0.5-3.5,1.9-4.9c1.1-1.1,2.4-1.9,4-2.4
		c1.6-0.3,3.5,0,4.8,0.8c1.9,1.4,3.5,3,4.3,5.1l12,21.4L206,65c0.8-1.9,2.1-3.3,3.7-4.3c1.3-0.8,2.9-1.1,4.3-0.8s2.7,1.1,3.5,2.2
		c1.1,1.1,1.6,2.4,1.9,4.1c0,1.9-0.3,3.5-1.3,5.1l-16.8,29v16.5c0,1.4-0.3,2.7-0.8,4.1c-0.5,1.1-1.1,1.9-1.9,2.7
		c-2.4,2.2-5.9,3-8.8,1.6c-1.1-0.3-1.9-1.1-2.7-1.6c-0.8-0.8-1.6-1.6-1.9-2.7c-0.5-1.4-0.8-2.7-0.8-4.1L184.6,100.3z"/>
	<path class="st4" d="M223.5,119.8c-4.3-4.6-6.7-10.8-6.4-17.1c0-3.3,0.5-6.2,1.6-9.2c1.1-2.7,2.4-5.4,4.5-7.6
		c2.1-2.4,4.8-4.1,7.7-5.1c3.5-1.4,7.2-1.9,10.9-1.9c7.7,0,13.9,2.2,18.4,6.5c4.5,4.6,6.7,10.8,6.4,17.3c0,3.3-0.5,6.2-1.6,9.2
		c-1.1,2.7-2.7,5.4-4.5,7.6c-2.1,2.4-4.8,4.1-7.7,5.1c-3.5,1.4-7.2,1.9-10.9,1.9C233.9,126.3,227.8,124.1,223.5,119.8z M249.1,113
		c1.9-3.3,2.7-6.8,2.7-10.6c0.3-3.8-0.8-7.3-2.7-10.6c-3.2-4.3-9.1-4.9-13.3-1.6c-0.5,0.5-1.1,1.1-1.6,1.6
		c-1.9,3.3-2.7,6.8-2.7,10.6c-0.3,3.8,0.8,7.3,2.7,10.6c1.6,2.4,4.5,4.1,7.5,3.8C244.6,116.8,247.5,115.5,249.1,113L249.1,113z"/>
	<path class="st4" d="M276.8,121.4c-3.2-3.5-4.8-8.1-4.5-13V89.2c-0.3-2.7,0.5-5.1,1.9-7.3c1.3-1.6,3.5-2.7,5.6-2.4
		c2.1-0.3,4,0.8,5.1,2.4c1.3,2.2,1.9,4.9,1.6,7.3v19c-0.3,2.2,0.5,4.6,2.1,6.2c1.3,1.4,3.2,2.2,5.1,2.2c2.4,0,4.8-1.1,6.4-3
		c1.9-1.9,2.7-4.6,2.7-7.3V89.2c-0.3-2.7,0.5-5.1,1.9-7.3c1.3-1.6,3.5-2.7,5.6-2.4c2.1-0.3,4,0.8,5.1,2.4c1.3,2.2,1.9,4.9,1.6,7.3
		v28.4c0.3,2.2-0.5,4.3-1.9,6c-1.6,1.4-3.5,2.2-5.6,1.9c-4.8,0-6.9-2.7-6.9-8.1v-0.5c-1.1,2.7-2.9,5.1-5.6,7
		c-2.9,1.6-6.1,2.4-9.3,2.2C283.7,126.3,279.7,124.4,276.8,121.4z"/>
	<path class="st4" d="M324.8,116V86.8c0-1.6,0.5-3.3,1.3-4.6c0.8-1.1,2.1-1.9,3.5-2.2c1.3-0.3,2.7-0.3,4.3,0
		c1.3,0.3,2.7,1.1,3.5,2.4c1.1,1.4,1.6,3,1.6,4.6v1.6c0.5-1.1,1.1-2.2,1.6-3.3c0.8-1.1,1.3-2.2,2.4-3.3c0.8-1.1,2.1-1.9,3.2-2.7
		c1.3-0.5,2.7-0.8,4-0.8c1.1,0,2.1,0.3,2.9,0.5s1.3,1.1,1.9,1.6c0.5,0.8,0.8,1.6,0.8,2.4c0.3,0.8,0.3,1.6,0,2.7
		c-0.3,0.8-0.5,1.6-1.1,2.4c-0.5,0.8-1.1,1.4-1.9,1.6c-0.8,0.5-1.6,0.5-2.7,0.8c-2.9,0-5.6,0.8-8,2.7c-2.1,1.6-3.5,4.3-3.5,7.3v15.7
		c0.3,2.4-0.3,4.9-1.6,7c-1.3,1.6-3.5,2.4-5.6,2.2C327.5,125.8,324.8,122.5,324.8,116z"/>
	<path class="st4" d="M366.1,122.2c-2.4-2.7-3.7-7-3.7-13.3V89.5h-2.7c-1.3,0-2.7-0.3-3.7-1.4c-0.8-1.1-1.3-2.4-1.3-4.1
		c-0.3-2.4,1.3-4.6,3.7-4.9c0.3,0,0.8,0,1.1,0h3.7l1.1-8.9c0.5-5.7,2.9-8.4,6.9-8.4s5.6,3,5.6,9.2v8.1h5.6c3.2,0,4.8,1.6,4.8,5.1
		c0,1.4-0.3,2.7-1.3,3.8c-1.1,0.8-2.4,1.4-3.7,1.4h-5.1v16.3c-0.3,2.7,0.3,5.7,1.3,8.1c1.1,1.6,2.9,2.4,5.1,2.2h2.7
		c0.8,0,1.6,0.3,2.1,0.8s1.1,1.4,1.3,2.2s0.3,1.6,0.3,2.7c0,0.8-0.3,1.6-0.8,2.4s-1.1,1.4-1.9,1.6c-3.5,1.1-6.9,1.4-10.4,1.4
		C372.5,126.6,368.8,125,366.1,122.2z"/>
	<path class="st4" d="M403.7,123.6c-3.5-1.6-6.7-4.6-8.5-8.1c-2.1-4.1-3.2-8.4-3.2-13c0-4.3,1.1-8.4,2.9-12.2
		c1.9-3.5,4.8-6.5,8.3-8.4c6.9-3.5,14.9-4.1,21.9-1.4c2.7,1.1,4.8,2.7,6.7,4.9c1.6,2.2,2.9,4.6,3.7,7c0.8,2.7,1.3,5.7,1.3,8.7
		c0,2.4-1.6,3.8-4.5,3.8h-26.1c0.3,7.3,4.3,11.1,11.7,11.1c2.1,0,4.3-0.5,6.1-1.4c1.9-0.8,3.5-1.9,5.1-3c1.1-0.8,2.7-0.8,3.7-0.3
		c1.3,0.8,2.1,1.9,2.7,3.5c0.5,1.4,0.3,3.3-1.1,4.3c-1.1,0.8-1.9,1.6-2.9,2.4c-1.1,0.8-2.4,1.6-3.7,2.2c-1.6,0.8-3.5,1.4-5.1,1.9
		c-2.1,0.5-4.3,0.5-6.4,0.5C411.9,126.3,407.7,125.5,403.7,123.6z M424.7,98.1c0-3-0.8-5.7-2.4-8.1c-1.6-1.9-4-3-6.7-3
		s-5.1,1.1-6.9,3c-1.6,2.2-2.7,5.1-2.7,7.9L424.7,98.1z"/>
	<path class="st4" d="M469,121.2l-8.5-9.2l-9.3,10.8c-1.1,1.6-2.7,2.7-4.5,3.3c-1.6,0.5-3.2,0.3-4.5-0.8c-1.3-1.1-2.1-2.7-2.1-4.6
		c0-2.2,0.8-4.3,2.1-6l10.4-11.6l-9.1-9.8c-1.9-1.9-2.9-4.6-3.2-7c0-1.6,0.5-3.3,1.9-4.3c1.3-1.1,2.9-1.9,4.8-1.9
		c0.8,0,1.9,0.3,2.7,0.8c0.8,0.5,1.6,1.1,2.1,1.9c0.5,0.5,1.3,1.4,2.1,2.7l7.7,8.7l10.3-12.3c1.3-1.6,3.2-2.7,5.3-2.7
		c1.3,0,2.7,0.5,3.7,1.4c1.1,1.1,1.6,2.4,1.6,3.8c0,2.2-0.8,4.3-2.4,6l-10.6,12.3l10.1,11.1c1.6,1.9,2.7,4.3,2.9,6.8
		c0,1.6-0.5,3.3-1.9,4.3c-1.1,1.1-2.7,1.9-4.3,1.9C474.3,126.3,471.6,124.4,469,121.2z"/>
	<path class="st4" d="M495.3,122.2c-2.4-2.7-3.7-7-3.7-13.3V89.5h-2.7c-1.3,0-2.7-0.3-3.7-1.4c-0.8-1.1-1.3-2.4-1.3-4.1
		c-0.3-2.4,1.3-4.6,3.7-4.9c0.3,0,0.8,0,1.1,0h4l1.1-8.9c0.5-5.7,2.9-8.4,6.9-8.4s5.6,3,5.6,9.2v8.1h5.6c3.2,0,4.8,1.6,4.8,5.1
		c0,1.4-0.3,2.7-1.3,3.8c-1.1,0.8-2.4,1.4-3.7,1.4h-5.2v16.3c-0.3,2.7,0.3,5.7,1.3,8.1c1.1,1.6,2.9,2.4,5.1,2.2h2.7
		c0.8,0,1.6,0.3,2.1,0.8s1.1,1.4,1.3,2.2c0.2,0.8,0.3,1.6,0.3,2.7c0,0.8-0.3,1.6-0.8,2.4s-1.1,1.4-1.9,1.6
		c-3.5,1.1-6.9,1.4-10.4,1.4C502,126.6,498.3,125,495.3,122.2z"/>
	<path class="st4" d="M527,123.6c-1.3-1.4-2.1-3.5-2.1-5.7s0.8-4.1,2.1-5.4c1.3-1.6,3.5-2.4,5.3-2.2c4.3,0,7.5,3.3,7.5,7.6v0.3
		c0,2.2-0.8,4.1-2.1,5.4c-1.3,1.6-3.2,2.4-5.3,2.4C530.2,126,528.4,125.2,527,123.6z"/>
	<path class="st4" d="M560.4,118.7c-6.1-5.7-9.1-14.6-9.1-26.3c0-4.6,0.5-9.2,2.1-13.5c1.3-4.1,3.5-7.9,6.1-11.1
		c2.9-3.3,6.7-6,10.7-7.6c4.8-1.9,10.1-2.7,15.2-2.7c4,0,7.7,0.5,11.5,1.6c3.5,0.8,6.7,2.2,9.6,4.3c1.1,0.5,1.6,1.6,2.1,2.7
		c0.5,0.8,0.8,1.9,0.8,2.7c0,1.6-0.5,3-1.6,4.3c-1.1,1.1-2.4,1.9-3.7,1.9c-1.1,0-1.9-0.3-2.9-1.1c-2.1-1.4-4.5-2.2-6.9-2.7
		c-2.7-0.5-5.3-1.1-8-1.1c-5.1-0.3-10.1,1.9-13.3,6c-2.9,4.1-4.5,9.8-4.5,17.1c0,3.5,0.3,6.8,1.3,10.3c0.8,2.4,2.1,4.6,3.7,6.5
		c1.6,1.6,3.5,2.7,5.6,3.3c2.4,0.8,4.8,1.1,7.2,1.1c3.2,0,6.4-0.5,9.6-1.4V99.2h-6.1c-1.6,0-3.2-0.3-4.8-1.1
		c-1.1-0.8-1.9-2.4-1.6-3.8c0-3.3,1.9-4.9,5.6-4.9h8.5h8.5c1.6-0.3,3.5,0.5,4.5,1.9c0.8,1.9,1.3,4.1,1.1,6.2v11.9
		c0,1.9,0,3.8-0.3,5.7c-0.3,1.4-0.5,2.7-0.8,4.1c-0.3,1.1-1.1,2.2-1.9,3c-1.1,0.8-2.1,1.4-3.2,1.9c-1.6,0.5-3.2,1.1-5.1,1.4
		c-4.8,0.8-9.6,1.1-14.7,1.4C574.8,127.4,566.5,124.4,560.4,118.7z"/>
	<path class="st4" d="M622.5,121.4c-3.2-3.5-4.8-8.1-4.5-13V89.2c-0.3-2.7,0.5-5.1,1.9-7.3c1.3-1.6,3.5-2.7,5.6-2.4
		c2.1-0.3,4,0.8,5.1,2.4c1.3,2.2,1.9,4.9,1.6,7.3v19c-0.3,2.2,0.5,4.6,2.1,6.2c1.3,1.4,3.2,2.2,5.1,2.2c2.4,0,4.8-1.1,6.4-3
		c1.9-1.9,2.7-4.6,2.7-7.3V89.2c-0.3-2.7,0.5-5.1,1.9-7.3c1.3-1.6,3.5-2.7,5.6-2.4c2.1-0.3,4,0.8,5.1,2.4c1.3,2.2,1.9,4.9,1.6,7.3
		v28.4c0.3,2.2-0.5,4.3-1.9,6c-1.3,1.4-3.5,2.2-5.6,1.9c-4.5,0-6.9-2.7-6.9-8.1v-0.5c-1.1,2.7-2.9,5.1-5.6,7
		c-2.9,1.6-6.1,2.4-9.3,2.2C629.4,126.3,625.4,124.4,622.5,121.4z"/>
	<path class="st4" d="M671.2,116V86.8c0-1.6,0.3-3.3,1.3-4.6c0.8-1.1,2.1-1.9,3.5-2.2c1.3-0.3,2.7-0.3,4.3,0
		c1.3,0.3,2.7,1.1,3.5,2.4c1.1,1.4,1.6,3,1.6,4.6v1.6c0.5-1.1,1.1-2.2,1.6-3.3c0.8-1.1,1.3-2.2,2.4-3.3c1.1-1.1,2.1-1.9,3.5-2.7
		c1.3-0.5,2.7-0.8,4-0.8c1.1,0,2.1,0.3,2.9,0.5c0.8,0.3,1.3,1.1,1.9,1.6c0.5,0.8,0.8,1.6,0.8,2.4c0.3,0.8,0.3,1.6,0,2.7
		c-0.3,0.8-0.5,1.6-1.1,2.4c-0.5,0.8-1.1,1.4-1.9,1.6c-0.8,0.5-1.6,0.5-2.7,0.8c-2.9,0-5.6,0.8-8,2.7c-2.4,1.6-3.7,4.3-3.5,7.3v15.7
		c0.3,2.4-0.3,4.9-1.6,7c-1.3,1.6-3.5,2.4-5.6,2.2C673.6,125.8,671.2,122.5,671.2,116z"/>
	<path class="st4" d="M710.1,121.4c-3.2-3.5-4.8-8.1-4.5-13V89.2c-0.3-2.7,0.5-5.1,1.9-7.3c1.3-1.6,3.5-2.7,5.6-2.4
		c2.1-0.3,4,0.8,5.1,2.4c1.3,2.2,1.9,4.9,1.6,7.3v19c-0.3,2.2,0.5,4.6,2.1,6.2c1.3,1.4,3.2,2.2,5.1,2.2c2.4,0,4.8-1.1,6.4-3
		c1.9-1.9,2.7-4.6,2.7-7.3V89.2c-0.3-2.7,0.5-5.1,1.9-7.3c1.3-1.6,3.5-2.7,5.6-2.4c2.1-0.3,4,0.8,5.1,2.4c1.3,2.2,1.9,4.9,1.6,7.3
		v28.4c0.3,2.2-0.5,4.3-1.9,6c-1.3,1.4-3.5,2.2-5.6,1.9c-4.8,0-6.9-2.7-6.9-8.1v-0.5c-1.1,2.7-2.9,5.1-5.6,7
		c-2.9,1.6-6.1,2.4-9.3,2.2C717.1,126.3,713.1,124.4,710.1,121.4z"/>
</g>
</svg>
